<svg xmlns="http://www.w3.org/2000/svg" viewBox="0 0 391.94 98.04"><defs><style>.cls-1{fill:#132448;}</style></defs><title>125k</title><g id="Слой_2" data-name="Слой 2"><g id="Слой_1-2" data-name="Слой 1"><g id="Page-1"><g id="Desktop"><path id="Imported-Layers" class="cls-1" d="M374.91,57.08q0,4.49-2.36,6.67a8.7,8.7,0,0,1-6.16,2.19,8.49,8.49,0,0,1-6.1-2.19q-2.3-2.19-2.3-6.67V24.17q0-4.49,2.3-6.68a8.5,8.5,0,0,1,6.1-2.19,8.71,8.71,0,0,1,6.16,2.19q2.36,2.19,2.36,6.68V57.08Zm17-32.91a23.63,23.63,0,0,0-2.13-10.24,23,23,0,0,0-5.7-7.59,24.81,24.81,0,0,0-8.17-4.72A28.71,28.71,0,0,0,366.39,0,28.36,28.36,0,0,0,357,1.61a24.14,24.14,0,0,0-8.11,4.72,23.37,23.37,0,0,0-5.64,7.59,23.61,23.61,0,0,0-2.13,10.24v33a23.6,23.6,0,0,0,2.13,10.24A22.73,22.73,0,0,0,348.85,75,24.62,24.62,0,0,0,357,79.63a28.36,28.36,0,0,0,9.44,1.61,28.71,28.71,0,0,0,9.55-1.61A25.31,25.31,0,0,0,384.12,75a22.41,22.41,0,0,0,5.7-7.54,23.62,23.62,0,0,0,2.13-10.24v-33ZM311.62,57.08q0,4.49-2.36,6.67a8.69,8.69,0,0,1-6.16,2.19,8.48,8.48,0,0,1-6.1-2.19q-2.3-2.19-2.3-6.67V24.17q0-4.49,2.3-6.68a8.49,8.49,0,0,1,6.1-2.19,8.7,8.7,0,0,1,6.16,2.19q2.36,2.19,2.36,6.68V57.08Zm17-32.91a23.64,23.64,0,0,0-2.13-10.24,23.05,23.05,0,0,0-5.7-7.59,24.8,24.8,0,0,0-8.17-4.72A28.71,28.71,0,0,0,303.1,0a28.36,28.36,0,0,0-9.44,1.61,24.13,24.13,0,0,0-8.11,4.72,23.15,23.15,0,0,0-7.77,17.84v33a23.59,23.59,0,0,0,2.13,10.24A22.73,22.73,0,0,0,285.55,75a24.61,24.61,0,0,0,8.11,4.66,28.36,28.36,0,0,0,9.44,1.61,28.71,28.71,0,0,0,9.55-1.61A25.3,25.3,0,0,0,320.83,75a22.43,22.43,0,0,0,5.7-7.54,23.63,23.63,0,0,0,2.13-10.24v-33ZM248.33,57.08q0,4.49-2.36,6.67a8.7,8.7,0,0,1-6.16,2.19,8.49,8.49,0,0,1-6.1-2.19q-2.3-2.19-2.3-6.67V24.17q0-4.49,2.3-6.68a8.5,8.5,0,0,1,6.1-2.19A8.7,8.7,0,0,1,246,17.49q2.36,2.19,2.36,6.68V57.08Zm17-32.91a23.63,23.63,0,0,0-2.13-10.24,23,23,0,0,0-5.7-7.59,24.82,24.82,0,0,0-8.17-4.72A28.72,28.72,0,0,0,239.81,0a28.37,28.37,0,0,0-9.44,1.61,24.15,24.15,0,0,0-8.11,4.72,23.36,23.36,0,0,0-5.64,7.59,23.6,23.6,0,0,0-2.13,10.24v33a23.59,23.59,0,0,0,2.13,10.24A22.72,22.72,0,0,0,222.26,75a24.63,24.63,0,0,0,8.11,4.66,28.36,28.36,0,0,0,9.44,1.61,28.72,28.72,0,0,0,9.55-1.61A25.32,25.32,0,0,0,257.54,75a22.41,22.41,0,0,0,5.7-7.54,23.62,23.62,0,0,0,2.13-10.24v-33ZM188.38,98l11.28-18.18V61.68H180.2v19.1h4.14L180,98ZM116.22,60.3A26.42,26.42,0,0,0,120,70.71a21.35,21.35,0,0,0,6.33,6.39,24.15,24.15,0,0,0,7.77,3.22,37.61,37.61,0,0,0,8.17.92,27.84,27.84,0,0,0,11.45-2.19,21.87,21.87,0,0,0,8.17-6.21,26.66,26.66,0,0,0,4.89-9.78,48.25,48.25,0,0,0,1.61-13,48.7,48.7,0,0,0-1.44-10.18,23,23,0,0,0-3.74-8.06,17,17,0,0,0-6.67-5.29,24.53,24.53,0,0,0-10.24-1.9,23.69,23.69,0,0,0-6.27,1,15.08,15.08,0,0,0-5.81,2.94V16.11h31.42V.57H117.95V46.26h15.42a11,11,0,0,1,4-5.18,8.52,8.52,0,0,1,4.37-1.5,9.13,9.13,0,0,1,4.43,1,7.36,7.36,0,0,1,2.82,2.7,11.66,11.66,0,0,1,1.44,4,26.39,26.39,0,0,1,.4,4.66,32,32,0,0,1-.35,4.66,14.19,14.19,0,0,1-1.32,4.31,8.62,8.62,0,0,1-2.76,3.22,7.88,7.88,0,0,1-4.66,1.27A9.87,9.87,0,0,1,136,63.69q-2.42-1.67-3.11-6.5L116.22,60.3ZM68.93,26.12q.69-5.52,3.22-7.88A8.35,8.35,0,0,1,78,15.88a7.6,7.6,0,0,1,6.16,2.53,8.6,8.6,0,0,1-.06,11.39l-32,36.71V80.67h51.21V64.79H75l22.79-26A23,23,0,0,0,102,31.42a25.9,25.9,0,0,0,1.5-8.63,23.8,23.8,0,0,0-2-10,20.05,20.05,0,0,0-5.41-7.13,22.45,22.45,0,0,0-8.17-4.26A36.32,36.32,0,0,0,77.68,0a25.62,25.62,0,0,0-9,1.61,24.71,24.71,0,0,0-7.77,4.66,25.27,25.27,0,0,0-5.7,7.36,27.08,27.08,0,0,0-2.82,9.72l16.57,2.76Zm-40,54.55V.57H13.81L0,10.13V27.85l12-8.29v61.1Z"/></g></g></g></g></svg>