<svg xmlns="http://www.w3.org/2000/svg" viewBox="0 0 808.45 161.65"><defs><style>.cls-1{fill:#fff;}</style></defs><title>1500k</title><g id="Слой_2" data-name="Слой 2"><g id="Слой_1-2" data-name="Слой 1"><g id="Page-1"><g id="Desktop"><path id="Imported-Layers" class="cls-1" d="M780.33,94.1q0,7.4-3.9,11a14.37,14.37,0,0,1-10.17,3.6q-6.27,0-10.07-3.6t-3.8-11V39.84q0-7.4,3.8-11t10.07-3.6a14.39,14.39,0,0,1,10.17,3.6q3.89,3.61,3.9,11V94.1Zm28.12-54.26A38.91,38.91,0,0,0,804.93,23a38,38,0,0,0-9.4-12.52A41,41,0,0,0,782,2.66,47.51,47.51,0,0,0,766.27,0a46.93,46.93,0,0,0-15.58,2.66,39.87,39.87,0,0,0-13.4,7.78,38.14,38.14,0,0,0-12.82,29.41V94.29A38.87,38.87,0,0,0,728,111.18a37.47,37.47,0,0,0,9.31,12.43,40.68,40.68,0,0,0,13.4,7.68,46.93,46.93,0,0,0,15.58,2.66A47.51,47.51,0,0,0,782,131.29a41.81,41.81,0,0,0,13.49-7.68,37,37,0,0,0,9.4-12.43,38.9,38.9,0,0,0,3.52-16.89V39.84ZM675.83,94.1q0,7.4-3.9,11a14.37,14.37,0,0,1-10.17,3.6q-6.27,0-10.07-3.6t-3.8-11V39.84q0-7.4,3.8-11t10.07-3.6a14.38,14.38,0,0,1,10.17,3.6q3.89,3.61,3.9,11V94.1Zm28.12-54.26A38.92,38.92,0,0,0,700.44,23,38,38,0,0,0,691,10.44a41,41,0,0,0-13.49-7.78A47.51,47.51,0,0,0,661.77,0a46.94,46.94,0,0,0-15.58,2.66,39.86,39.86,0,0,0-13.39,7.78A38.14,38.14,0,0,0,620,39.84V94.29a38.87,38.87,0,0,0,3.52,16.89,37.47,37.47,0,0,0,9.31,12.43,40.66,40.66,0,0,0,13.39,7.68,46.93,46.93,0,0,0,15.58,2.66,47.51,47.51,0,0,0,15.77-2.66A41.83,41.83,0,0,0,691,123.61a37,37,0,0,0,9.4-12.43,38.91,38.91,0,0,0,3.51-16.89V39.84ZM571.33,94.1q0,7.4-3.9,11a14.37,14.37,0,0,1-10.17,3.6q-6.27,0-10.07-3.6t-3.8-11V39.84q0-7.4,3.8-11t10.07-3.6a14.38,14.38,0,0,1,10.17,3.6q3.89,3.61,3.9,11V94.1Zm28.12-54.26A38.92,38.92,0,0,0,595.94,23a38,38,0,0,0-9.41-12.52A41,41,0,0,0,573,2.66,47.51,47.51,0,0,0,557.27,0a46.93,46.93,0,0,0-15.58,2.66,39.86,39.86,0,0,0-13.39,7.78,38.13,38.13,0,0,0-12.83,29.41V94.29A38.86,38.86,0,0,0,519,111.18a37.46,37.46,0,0,0,9.31,12.43,40.66,40.66,0,0,0,13.39,7.68,46.93,46.93,0,0,0,15.58,2.66A47.51,47.51,0,0,0,573,131.29a41.81,41.81,0,0,0,13.49-7.68,37,37,0,0,0,9.41-12.43,38.91,38.91,0,0,0,3.51-16.89V39.84ZM472.34,161.65l18.62-30v-30H458.85v31.49h6.84l-7.22,28.46ZM410,94.1q0,7.4-3.9,11a14.37,14.37,0,0,1-10.17,3.6q-6.27,0-10.07-3.6t-3.8-11V39.84q0-7.4,3.8-11T396,25.23a14.38,14.38,0,0,1,10.17,3.6q3.89,3.61,3.9,11V94.1Zm28.12-54.26A38.92,38.92,0,0,0,434.63,23a38,38,0,0,0-9.41-12.52,41,41,0,0,0-13.49-7.78A47.51,47.51,0,0,0,396,0a46.93,46.93,0,0,0-15.58,2.66A39.87,39.87,0,0,0,367,10.44a38.14,38.14,0,0,0-12.82,29.41V94.29a38.87,38.87,0,0,0,3.51,16.89A37.47,37.47,0,0,0,367,123.61a40.68,40.68,0,0,0,13.4,7.68A46.93,46.93,0,0,0,396,133.95a47.51,47.51,0,0,0,15.77-2.66,41.81,41.81,0,0,0,13.49-7.68,37,37,0,0,0,9.41-12.43,38.91,38.91,0,0,0,3.51-16.89V39.84ZM305.52,94.1q0,7.4-3.9,11a14.37,14.37,0,0,1-10.16,3.6q-6.27,0-10.07-3.6t-3.8-11V39.84q0-7.4,3.8-11t10.07-3.6a14.38,14.38,0,0,1,10.16,3.6q3.89,3.61,3.9,11V94.1Zm28.12-54.26A38.92,38.92,0,0,0,330.13,23a38,38,0,0,0-9.4-12.52,41,41,0,0,0-13.49-7.78A47.51,47.51,0,0,0,291.46,0a46.94,46.94,0,0,0-15.58,2.66,39.87,39.87,0,0,0-13.39,7.78,38.14,38.14,0,0,0-12.82,29.41V94.29a38.87,38.87,0,0,0,3.51,16.89,37.47,37.47,0,0,0,9.31,12.43,40.67,40.67,0,0,0,13.39,7.68,46.94,46.94,0,0,0,15.58,2.66,47.51,47.51,0,0,0,15.77-2.66,41.83,41.83,0,0,0,13.49-7.68,37,37,0,0,0,9.4-12.43,38.91,38.91,0,0,0,3.51-16.89V39.84ZM144.21,99.42q1.71,10.44,6.18,17.17a35.22,35.22,0,0,0,10.45,10.53,39.88,39.88,0,0,0,12.83,5.31,62.18,62.18,0,0,0,13.49,1.52,46,46,0,0,0,18.91-3.61,36.1,36.1,0,0,0,13.49-10.25A43.94,43.94,0,0,0,227.62,104a79.52,79.52,0,0,0,2.66-21.44,80.28,80.28,0,0,0-2.38-16.79,37.87,37.87,0,0,0-6.18-13.28,28,28,0,0,0-11-8.73q-6.84-3.13-16.91-3.13a39.16,39.16,0,0,0-10.36,1.61,24.94,24.94,0,0,0-9.6,4.84V26.56h51.87V.95H147.06V76.27h25.46q2.66-6.07,6.65-8.54a14.08,14.08,0,0,1,7.22-2.47,15.11,15.11,0,0,1,7.32,1.61,12.14,12.14,0,0,1,4.65,4.46,19.2,19.2,0,0,1,2.38,6.55,43.46,43.46,0,0,1,.67,7.68,52.86,52.86,0,0,1-.57,7.68,23.35,23.35,0,0,1-2.19,7.11,14.21,14.21,0,0,1-4.56,5.31,13,13,0,0,1-7.7,2.09,16.31,16.31,0,0,1-9.5-2.75q-4-2.75-5.13-10.72l-27.55,5.12ZM102,161.65l18.62-30v-30H88.54v31.49h6.84l-7.22,28.46ZM47.69,133V.95H22.8L0,16.7V45.91L19.76,32.25V133Z"/></g></g></g></g></svg>