<svg xmlns="http://www.w3.org/2000/svg" viewBox="0 0 274.03 96.88"><defs><style>.cls-1{fill:#132448;}</style></defs><title>3,5k</title><g id="Слой_2" data-name="Слой 2"><g id="Слой_1-2" data-name="Слой 1"><g id="Page-1"><g id="Desktop"><path id="Imported-Layers" class="cls-1" d="M257.2,56.4q0,4.43-2.33,6.6a8.58,8.58,0,0,1-6.08,2.16,8.38,8.38,0,0,1-6-2.16q-2.28-2.16-2.27-6.6V23.88q0-4.43,2.27-6.59a8.39,8.39,0,0,1,6-2.16,8.59,8.59,0,0,1,6.08,2.16q2.33,2.16,2.33,6.59V56.4ZM274,23.88a23.36,23.36,0,0,0-2.1-10.12,22.78,22.78,0,0,0-5.63-7.51,24.53,24.53,0,0,0-8.07-4.66A28.39,28.39,0,0,0,248.78,0a28,28,0,0,0-9.33,1.59,23.86,23.86,0,0,0-8,4.66,23.08,23.08,0,0,0-5.57,7.51,23.31,23.31,0,0,0-2.1,10.12V56.51a23.31,23.31,0,0,0,2.1,10.12,22.43,22.43,0,0,0,5.57,7.45,24.32,24.32,0,0,0,8,4.6,28,28,0,0,0,9.33,1.59,28.39,28.39,0,0,0,9.44-1.59,25,25,0,0,0,8.07-4.6,22.15,22.15,0,0,0,5.63-7.45A23.35,23.35,0,0,0,274,56.51V23.88ZM194.66,56.4q0,4.43-2.33,6.6a8.59,8.59,0,0,1-6.08,2.16,8.39,8.39,0,0,1-6-2.16q-2.27-2.16-2.27-6.6V23.88q0-4.43,2.27-6.59a8.4,8.4,0,0,1,6-2.16,8.6,8.6,0,0,1,6.08,2.16q2.33,2.16,2.33,6.59V56.4Zm16.83-32.52a23.36,23.36,0,0,0-2.1-10.12,22.74,22.74,0,0,0-5.63-7.51,24.5,24.5,0,0,0-8.07-4.66A28.37,28.37,0,0,0,186.25,0a28,28,0,0,0-9.33,1.59,23.84,23.84,0,0,0-8,4.66,23.08,23.08,0,0,0-5.57,7.51,23.34,23.34,0,0,0-2.1,10.12V56.51a23.34,23.34,0,0,0,2.1,10.12,22.43,22.43,0,0,0,5.57,7.45,24.3,24.3,0,0,0,8,4.6,28,28,0,0,0,9.33,1.59,28.37,28.37,0,0,0,9.44-1.59,25,25,0,0,0,8.07-4.6,22.12,22.12,0,0,0,5.63-7.45,23.35,23.35,0,0,0,2.1-10.12V23.88ZM98.13,59.58a26.13,26.13,0,0,0,3.7,10.29,21.09,21.09,0,0,0,6.25,6.31,23.83,23.83,0,0,0,7.67,3.18,37.16,37.16,0,0,0,8.07.91,27.51,27.51,0,0,0,11.31-2.16A21.62,21.62,0,0,0,143.21,72,26.37,26.37,0,0,0,148,62.31a47.7,47.7,0,0,0,1.59-12.85,48.14,48.14,0,0,0-1.42-10.06,22.68,22.68,0,0,0-3.7-8,16.78,16.78,0,0,0-6.6-5.23,24.25,24.25,0,0,0-10.12-1.88,23.39,23.39,0,0,0-6.2,1,14.92,14.92,0,0,0-5.74,2.9V15.92h31V.57H99.83V45.71h15.24a10.9,10.9,0,0,1,4-5.12,8.41,8.41,0,0,1,4.32-1.48,9,9,0,0,1,4.38,1,7.29,7.29,0,0,1,2.79,2.67A11.59,11.59,0,0,1,132,46.68a26.05,26.05,0,0,1,.4,4.6,31.66,31.66,0,0,1-.34,4.6,14,14,0,0,1-1.31,4.26A8.52,8.52,0,0,1,128,63.33a7.78,7.78,0,0,1-4.61,1.25,9.75,9.75,0,0,1-5.68-1.65q-2.39-1.65-3.07-6.42L98.13,59.58ZM72.88,96.88,84,78.91v-18H64.81V79.82H68.9L64.58,96.88ZM0,59.47a25.88,25.88,0,0,0,3.81,9.61,24.58,24.58,0,0,0,6.25,6.42,24.86,24.86,0,0,0,7.73,3.64,31.52,31.52,0,0,0,8.36,1.14,31.6,31.6,0,0,0,11-1.82,24.59,24.59,0,0,0,8.41-5.06,22.66,22.66,0,0,0,5.4-7.79,25.31,25.31,0,0,0,1.93-10,18.63,18.63,0,0,0-.63-4.6,17.62,17.62,0,0,0-2-4.72,19.07,19.07,0,0,0-3.47-4.21,18,18,0,0,0-4.95-3.18,13.39,13.39,0,0,0,4.43-3,22.64,22.64,0,0,0,3.3-4.15,20.15,20.15,0,0,0,2.1-4.6,14.78,14.78,0,0,0,.74-4.32,24.91,24.91,0,0,0-1.54-8.7,19.65,19.65,0,0,0-4.72-7.28,23.11,23.11,0,0,0-8.13-5A32.83,32.83,0,0,0,26.38,0a25.86,25.86,0,0,0-16,5.52,25.24,25.24,0,0,0-5.85,6.59,26.87,26.87,0,0,0-3.47,9l16,2.84q.79-4.78,3.41-6.54a9.31,9.31,0,0,1,5.23-1.76A9.09,9.09,0,0,1,32,18a7.51,7.51,0,0,1,2.61,5.85,8.77,8.77,0,0,1-2.27,5.91Q30,32.41,24.56,32.41h-7V45.48h6.82q5.46,0,8,2.79a10.1,10.1,0,0,1,2.56,7.11,8.49,8.49,0,0,1-2.79,6.82,9.59,9.59,0,0,1-6.42,2.39,11,11,0,0,1-6.2-1.76,8,8,0,0,1-3.35-5.63L0,59.47Z"/></g></g></g></g></svg>