<svg xmlns="http://www.w3.org/2000/svg" viewBox="0 0 647.23 249.34"><defs><style>.cls-1{fill:#fff;}</style></defs><title>30%</title><g id="Слой_2" data-name="Слой 2"><g id="Слой_1-2" data-name="Слой 1"><g id="Page-1"><g id="Desktop"><path id="Imported-Layers" class="cls-1" d="M607.82,0H567.73L423.33,249.34h39.75L607.82,0ZM447.11,105.2q0,6.15-3.74,9.22a14.49,14.49,0,0,1-9.51,3.07,13.8,13.8,0,0,1-9.34-3.07Q421,111.35,421,105.2V48.84q0-6.48,3.57-9.56a13.8,13.8,0,0,1,9.34-3.07,14.49,14.49,0,0,1,9.51,3.07q3.73,3.08,3.74,9.56V105.2Zm37.71-56.36a40.28,40.28,0,0,0-4.25-18.79A42.13,42.13,0,0,0,469.2,16.22a50.77,50.77,0,0,0-16.31-8.54,62.8,62.8,0,0,0-19-2.9,60.06,60.06,0,0,0-18.52,2.9,51.09,51.09,0,0,0-16.14,8.54,42.06,42.06,0,0,0-11.38,13.83,40.22,40.22,0,0,0-4.25,18.79v56.7A39.45,39.45,0,0,0,387.82,124a42.05,42.05,0,0,0,11.38,13.83,51,51,0,0,0,16.14,8.54,59.87,59.87,0,0,0,18.52,2.9,62.6,62.6,0,0,0,19-2.9,50.67,50.67,0,0,0,16.31-8.54A42.12,42.12,0,0,0,480.58,124a39.52,39.52,0,0,0,4.25-18.44V48.84ZM609.52,200.5q0,6.15-3.74,9.22a14.49,14.49,0,0,1-9.51,3.07,13.81,13.81,0,0,1-9.34-3.07q-3.57-3.08-3.57-9.22V144.14q0-6.48,3.57-9.56a13.81,13.81,0,0,1,9.34-3.07,14.49,14.49,0,0,1,9.51,3.07q3.73,3.08,3.74,9.56V200.5Zm37.71-56.36A40.27,40.27,0,0,0,643,125.36a42.1,42.1,0,0,0-11.38-13.83A50.77,50.77,0,0,0,615.29,103a62.81,62.81,0,0,0-19-2.9,60.06,60.06,0,0,0-18.52,2.9,51.09,51.09,0,0,0-16.14,8.54,42,42,0,0,0-11.38,13.83A40.22,40.22,0,0,0,546,144.14v56.7a39.46,39.46,0,0,0,4.25,18.45,42,42,0,0,0,11.38,13.83,51,51,0,0,0,16.14,8.54,60,60,0,0,0,18.52,2.9,62.8,62.8,0,0,0,19-2.9,50.66,50.66,0,0,0,16.31-8.54A42.11,42.11,0,0,0,643,219.29a39.51,39.51,0,0,0,4.25-18.45v-56.7Zm-354,29.38q0,13.32-7,19.81t-18.18,6.49q-11.21,0-18-6.49t-6.79-19.81V75.83q0-13.32,6.79-19.81t18-6.49q11.21,0,18.18,6.49t7,19.81v97.69Zm50.28-97.69q0-17.08-6.28-30.4a68.38,68.38,0,0,0-16.82-22.54,73.16,73.16,0,0,0-24.12-14,84.41,84.41,0,0,0-28.2-4.78A83.39,83.39,0,0,0,240.2,8.88a71.17,71.17,0,0,0-24,14A69.35,69.35,0,0,0,199.6,45.43q-6.29,13.32-6.28,30.4v98q0,17.08,6.28,30.4a67.41,67.41,0,0,0,16.65,22.37,72.56,72.56,0,0,0,24,13.83,83.39,83.39,0,0,0,27.86,4.78,84.4,84.4,0,0,0,28.2-4.78,74.62,74.62,0,0,0,24.12-13.83,66.49,66.49,0,0,0,16.82-22.37q6.28-13.32,6.28-30.4v-98ZM0,182.74q3.39,17.08,11.38,28.86a73.29,73.29,0,0,0,41.79,30.23,93.79,93.79,0,0,0,25,3.42,93.88,93.88,0,0,0,32.79-5.47,73.32,73.32,0,0,0,25.14-15.2,68.07,68.07,0,0,0,16.14-23.4A76.46,76.46,0,0,0,158,171.13a56.42,56.42,0,0,0-1.87-13.83,53.3,53.3,0,0,0-5.95-14.18,57.11,57.11,0,0,0-10.36-12.64A53.64,53.64,0,0,0,125,120.92,40,40,0,0,0,138.28,112a68.07,68.07,0,0,0,9.85-12.47,60.72,60.72,0,0,0,6.28-13.83,44.61,44.61,0,0,0,2.21-13A75.11,75.11,0,0,0,152,46.62a59.09,59.09,0,0,0-14.1-21.86q-9.52-9.39-24.29-15T78.82,4.1A77,77,0,0,0,30.92,20.66a75.65,75.65,0,0,0-17.5,19.81A81,81,0,0,0,3.06,67.63L51,76.17q2.37-14.35,10.19-19.64t15.63-5.29a27.07,27.07,0,0,1,18.69,7,22.63,22.63,0,0,1,7.81,17.59,26.43,26.43,0,0,1-6.79,17.76q-6.8,7.86-23.1,7.86H52.32v39.28H72.71q16.31,0,24,8.37t7.64,21.35q0,13.32-8.32,20.49a28.55,28.55,0,0,1-19.2,7.17,32.69,32.69,0,0,1-18.52-5.29q-8-5.29-10-16.91L0,182.74Z"/></g></g></g></g></svg>