<svg xmlns="http://www.w3.org/2000/svg" viewBox="0 0 127.6 121.7"><defs><style>.cls-1,.cls-2,.cls-3{fill:none;stroke-width:4px;}.cls-1,.cls-2{stroke:#000;}.cls-2,.cls-3{stroke-linecap:round;stroke-linejoin:round;}.cls-3{stroke:#d0011b;}</style></defs><title>menu-smi</title><g id="Слой_2" data-name="Слой 2"><g id="Слой_1-2" data-name="Слой 1"><g id="Слой_2-2" data-name="Слой 2"><g id="Слой_1-2-2" data-name="Слой 1-2"><g id="Page-1"><g id="Desktop"><g id="Imported-Layers"><path id="Stroke-1" class="cls-1" d="M23.3,119.7h86.6a4.06,4.06,0,0,0,1.9-.4c.6-.3,13.8-6.9,13.8-20.1V31.6a4.27,4.27,0,0,0-4.3-4.3H106.1V6.3A4.27,4.27,0,0,0,101.8,2H6.3A4.27,4.27,0,0,0,2,6.3V98.2a2.77,2.77,0,0,0,.1.9c.2.9,4.7,20.6,21.2,20.6Z"/><path id="Stroke-2" class="cls-2" d="M106.1,24.4Zm-82.2,73Zm0-16.4Zm0-20.1Zm8.3-27.2Z"/></g><polygon id="Path" class="cls-3" points="21.9 22.3 86.3 22.3 86.3 45 21.9 45 21.9 22.3"/></g></g></g></g><line class="cls-2" x1="23.9" y1="60.9" x2="86.3" y2="60.9"/><path class="cls-2" d="M23.9,81"/><line class="cls-2" x1="23.9" y1="97.4" x2="86.3" y2="97.4"/><line class="cls-2" x1="32.2" y1="33.7" x2="48" y2="33.7"/><line class="cls-2" x1="23.9" y1="81" x2="86.3" y2="81"/><line class="cls-1" x1="106.1" y1="27.3" x2="106.1" y2="97.4"/></g></g></svg>