<svg xmlns="http://www.w3.org/2000/svg" viewBox="0 0 170.67 126.93"><defs><style>.cls-1{fill:#01b9b4;}</style></defs><title>menu-rest</title><g id="Слой_2" data-name="Слой 2"><g id="Слой_1-2" data-name="Слой 1"><g id="Desktop"><g id="Imported-Layers"><path id="Fill-2" class="cls-1" d="M138.11,113H96.58l-.3-1.76c-1.13-6.54-3.11-10.93-6.62-14.66L88.16,95l1.64-1.45c7.53-6.63,12.89-25.74,13.65-48.69l.07-2h27.66l.07,2c.76,23,6.12,42.06,13.65,48.69L146.53,95,145,96.55c-3.51,3.73-5.49,8.12-6.62,14.66l-.3,1.76Zm-38-4.23h34.46a30.49,30.49,0,0,1,6-13.52c-3.8-4.12-6.93-10.66-9.32-19.48A135.4,135.4,0,0,1,127.09,47H107.6c-.82,17.76-4.76,38.71-13.49,48.2a30.51,30.51,0,0,1,6,13.52Z"/><path id="Fill-4" d="M167.7,126.93H3a2.12,2.12,0,0,1,0-4.23H8.81V39.45H5A5,5,0,0,1,.21,33.08L9,3.54A5,5,0,0,1,13.77,0H156.9a5,5,0,0,1,4.75,3.54l8.81,29.53a5,5,0,0,1-4.75,6.38h-3.86v83.24h5.84a2.12,2.12,0,0,1,0,4.23ZM13,122.69H157.63V37.34a2.12,2.12,0,0,1,2.12-2.12h6a.72.72,0,0,0,.58-.29.73.73,0,0,0,.12-.64L157.6,4.75a.73.73,0,0,0-.69-.52H13.77a.73.73,0,0,0-.69.52L4.26,34.29a.72.72,0,0,0,.69.93h6A2.12,2.12,0,0,1,13,37.34v85.36Z"/><path id="Fill-5" d="M69.78,126.93H30.24a2.12,2.12,0,0,1-2.12-2.12V62.9a2.12,2.12,0,0,1,2.12-2.12H69.78A2.12,2.12,0,0,1,71.9,62.9v61.91a2.12,2.12,0,0,1-2.12,2.12Zm-37.42-4.23H67.67V65H32.36Z"/><path id="Fill-7" d="M159.74,39.45H10.93a2.12,2.12,0,0,1,0-4.23H159.74a2.12,2.12,0,0,1,0,4.23"/><polygon id="Fill-8" class="cls-1" points="115.23 98.64 119.46 98.64 119.46 110.85 115.23 110.85 115.23 98.64"/><path id="Fill-9" class="cls-1" d="M125.38,100.76H109.45a2.12,2.12,0,0,1,0-4.23h15.93a2.12,2.12,0,0,1,0,4.23"/><path id="Fill-10" d="M78.5,52.46H22.24a2.12,2.12,0,0,1,0-4.23H78.5a2.12,2.12,0,0,1,0,4.23"/><path id="Fill-11" d="M60.17,107.16h-20A2.12,2.12,0,0,1,38.06,105V74.35a2.12,2.12,0,0,1,2.12-2.12h20a2.12,2.12,0,0,1,2.12,2.12V105a2.12,2.12,0,0,1-2.12,2.12ZM42.3,102.92H58.06V76.47H42.3Z"/><path id="Fill-12" d="M85.34,30.66a2.12,2.12,0,0,1-2.12-2.12V10a2.12,2.12,0,1,1,4.23,0V28.55a2.12,2.12,0,0,1-2.12,2.12"/><path id="Fill-13" d="M98.95,30.66a2.12,2.12,0,0,1-2.11-1.95L95.33,10.17a2.12,2.12,0,1,1,4.22-.34l1.51,18.55a2.12,2.12,0,0,1-1.94,2.28h-.17"/><path id="Fill-14" d="M71.73,30.66h-.17a2.12,2.12,0,0,1-1.94-2.28L71.13,9.82a2.12,2.12,0,1,1,4.22.34L73.84,28.72a2.12,2.12,0,0,1-2.11,1.95"/><path id="Fill-15" d="M112.25,30.66a2.12,2.12,0,0,1-2.09-1.81L107.44,10.3a2.12,2.12,0,1,1,4.19-.61l2.72,18.55a2.12,2.12,0,0,1-1.79,2.4l-.31,0"/><path id="Fill-16" d="M58.42,30.66l-.31,0a2.12,2.12,0,0,1-1.79-2.4L59,9.69a2.12,2.12,0,1,1,4.19.61L60.51,28.85a2.12,2.12,0,0,1-2.09,1.81"/><path id="Fill-17" d="M125,30.66a2.12,2.12,0,0,1-2.08-1.74l-3.33-18.55a2.12,2.12,0,1,1,4.17-.75L127,28.17A2.12,2.12,0,0,1,125,30.66"/><path id="Fill-18" d="M137.66,30.66A2.12,2.12,0,0,1,135.59,29l-3.93-18.55a2.12,2.12,0,1,1,4.14-.88l3.93,18.55a2.12,2.12,0,0,1-2.07,2.56"/><path id="Fill-19" d="M150.37,30.66A2.12,2.12,0,0,1,148.31,29L143.78,10.5a2.12,2.12,0,1,1,4.11-1L152.43,28a2.12,2.12,0,0,1-2.06,2.62"/><path id="Fill-20" d="M45.11,30.66A2.12,2.12,0,0,1,43,28.11L47,9.55a2.12,2.12,0,1,1,4.14.88L47.18,29a2.12,2.12,0,0,1-2.07,1.68"/><path id="Fill-21" d="M31.8,30.66a2.12,2.12,0,0,1-2-2.68L34.9,9.43A2.12,2.12,0,0,1,39,10.56L33.84,29.11a2.12,2.12,0,0,1-2,1.55"/><path id="Fill-22" d="M18.49,30.66a2.12,2.12,0,0,1-2-2.8L22.84,9.31a2.12,2.12,0,0,1,4,1.37L20.49,29.23a2.12,2.12,0,0,1-2,1.43"/><path id="Fill-23" d="M89.41,46.76h55.88v61.92H89.41Zm57.27-4.23H88a2.84,2.84,0,0,0-2.84,2.84v64.71A2.84,2.84,0,0,0,88,112.91h58.67a2.84,2.84,0,0,0,2.84-2.84V45.36a2.84,2.84,0,0,0-2.84-2.84Z"/></g></g></g></g></svg>