<svg xmlns="http://www.w3.org/2000/svg" viewBox="0 0 167.31 126.42"><defs><style>.cls-1{fill:#fdbb16;}</style></defs><title>menu-partner</title><g id="Слой_2" data-name="Слой 2"><g id="Слой_1-2" data-name="Слой 1"><g id="Desktop"><g id="Imported-Layers"><path id="Fill-1" d="M165.22,103.89H2.09A2.09,2.09,0,0,1,0,101.81V2.09A2.09,2.09,0,0,1,2.09,0H165.22a2.09,2.09,0,0,1,2.09,2.09v99.72a2.09,2.09,0,0,1-2.09,2.09Zm-161-4.18H163.12V4.18H4.18Z"/><path id="Fill-2" class="cls-1" d="M16.28,74.68a2.09,2.09,0,0,1-1.42-3.62L37,50.54a2.09,2.09,0,0,1,2.66-.15L55.18,61.78l19-14.55a2.09,2.09,0,0,1,1.27-.43H92.06l14.08-24.35a2.09,2.09,0,0,1,3.62,2.09L95.07,49.93a2.09,2.09,0,0,1-1.81,1H76.13L56.48,66a2.09,2.09,0,0,1-2.51,0L38.61,54.78,17.7,74.12a2.09,2.09,0,0,1-1.42.56"/><path id="Fill-3" d="M16.28,61A2.09,2.09,0,0,1,14.19,59V18.77a2.09,2.09,0,0,1,4.18,0V59A2.09,2.09,0,0,1,16.28,61"/><path id="Fill-4" d="M107.94,82.87H16.28a2.09,2.09,0,1,1,0-4.18h91.67a2.09,2.09,0,1,1,0,4.18"/><polygon id="Fill-5" points="82.79 100.37 86.98 100.37 86.98 111.21 82.79 111.21 82.79 100.37"/><path id="Fill-6" d="M84.77,126.42a7.88,7.88,0,1,1,7.89-7.88,7.89,7.89,0,0,1-7.89,7.88Zm0-11.58a3.7,3.7,0,1,0,3.71,3.7,3.71,3.71,0,0,0-3.71-3.7Z"/><path id="Fill-7" d="M155.84,82.87H121.65a2.09,2.09,0,1,1,0-4.18h34.18a2.09,2.09,0,1,1,0,4.18"/><path id="Fill-8" d="M131.63,43.62a2.09,2.09,0,0,1-2.06-2.44l1.22-7.09-5.16-5a2.09,2.09,0,0,1,1.16-3.56l7.12-1L137.1,18a2.09,2.09,0,0,1,3.75,0L144,24.48l7.12,1a2.09,2.09,0,0,1,1.16,3.56l-5.16,5,1.22,7.09a2.09,2.09,0,0,1-3,2.2L139,40l-6.37,3.35a2.09,2.09,0,0,1-1,.24Zm0-14.58,2.91,2.83a2.09,2.09,0,0,1,.6,1.85l-.69,4,3.6-1.89a2.09,2.09,0,0,1,1.95,0l3.6,1.89-.69-4a2.09,2.09,0,0,1,.6-1.85L146.36,29l-4-.58a2.09,2.09,0,0,1-1.57-1.14L139,23.67l-1.8,3.64a2.09,2.09,0,0,1-1.57,1.14l-4,.58Z"/><path id="Fill-9" d="M129,82.87a2.09,2.09,0,0,1-2.09-2.09V61A2.09,2.09,0,0,1,131,61V80.79A2.09,2.09,0,0,1,129,82.87"/><path id="Fill-10" d="M139,82.87a2.09,2.09,0,0,1-2.09-2.09V64.33a2.09,2.09,0,0,1,4.18,0V80.79A2.09,2.09,0,0,1,139,82.87"/><path id="Fill-11" d="M148.63,82.87a2.09,2.09,0,0,1-2.09-2.09v-27a2.09,2.09,0,0,1,4.18,0v27a2.09,2.09,0,0,1-2.09,2.09"/></g></g></g></g></svg>