<?xml version="1.0" encoding="utf-8"?>
<!-- Generator: Adobe Illustrator 21.0.0, SVG Export Plug-In . SVG Version: 6.00 Build 0)  -->
<svg version="1.1" id="Слой_1" xmlns="http://www.w3.org/2000/svg" xmlns:xlink="http://www.w3.org/1999/xlink" x="0px" y="0px"
	 viewBox="0 0 156.9 199" style="enable-background:new 0 0 156.9 199;" xml:space="preserve">
<style type="text/css">
	.st0{fill:none;stroke:#979797;stroke-dasharray:2;}
	.st1{fill:none;stroke:#FDBB16;stroke-width:2;stroke-dasharray:2;}
	.st2{fill:none;stroke:#25B2A7;stroke-width:4;stroke-linecap:round;stroke-linejoin:round;}
	.st3{font-family:'ArialMT';}
	.st4{font-size:10.72px;}
	.st5{fill:none;stroke:#FDBB16;stroke-width:4;stroke-linecap:round;stroke-linejoin:round;}
	.st6{fill:none;stroke:#132448;stroke-width:4;stroke-linecap:round;stroke-linejoin:round;}
	.st7{fill:#0E2243;}
	.st8{fill:none;stroke:#D0011B;stroke-width:4;stroke-linecap:round;stroke-linejoin:round;}
</style>
<title>partner-widget</title>
<g id="Слой_2">
	<g id="Слой_1-2">
		<g id="Desktop">
			<g id="Group">
				<g id="Path-296">
					<path id="path-1" class="st0" d="M1.9,170.6l86.3-89.9"/>
					<path id="path-1-2" class="st1" d="M1.9,170.6l86.3-89.9"/>
				</g>
				<g id="Path-296-Copy">
					<path id="path-2" class="st0" d="M152.5,173l-11.9-92.9"/>
					<path id="path-2-2" class="st1" d="M152.5,173l-11.9-92.9"/>
				</g>
				<polygon id="Path" class="st2" points="87.6,75.6 140.5,75.6 140.5,85.3 87.6,85.3 				"/>
				<g id="Забронировать">
					<text transform="matrix(1 0 0 1 39.66 186.49)" class="st3 st4">Заброниро</text>
					<text transform="matrix(1 0 0 1 93.97 186.49)" class="st3 st4">в</text>
					<text transform="matrix(1 0 0 1 99.55 186.49)" class="st3 st4">а</text>
					<text transform="matrix(1 0 0 1 105.27 186.49)" class="st3 st4">ть</text>
				</g>
				<polygon id="Path-Copy" class="st5" points="2,170.8 152.4,170.8 152.4,197 2,197 				"/>
				<g id="Imported-Layers">
					<path id="Stroke-1" class="st6" d="M50.9,134.9h55.2v-0.6c-2.7-2.2-8.3-7.1-9.3-9.7c-1.3-3.4-1.3-7.6-1.3-11.2
						c0-0.6,0-1.3,0-1.9l0.9-0.9h54.3c2.4-0.1,4.2-2,4.2-4.3V6.1c0.1-2.2-1.7-4-3.9-4.1c-0.1,0-0.2,0-0.3,0H6.4
						C4.1,1.9,2.2,3.7,2.1,6c0,0,0,0.1,0,0.1v100.1c0,2.4,1.9,4.3,4.3,4.3h54.2l0.9,0.9c0,0.6,0,1.2,0,1.9c0,3.6,0,7.8-1.3,11.2
						c-1,2.5-6.6,7.4-9.3,9.7L50.9,134.9L50.9,134.9z"/>
					<path id="Fill-2" class="st7" d="M78.5,4.6c0.8,0,1.4,0.7,1.4,1.5s-0.7,1.4-1.5,1.4C77.6,7.4,77,6.8,77,6
						C77,5.2,77.6,4.6,78.5,4.6"/>
					<path id="Stroke-3" class="st6" d="M113.3,98.2h35l0.9-0.9V11.5l-0.9-0.9H8.3l-0.9,0.9v85.7l0.9,0.9H113.3z M7.4,37.3L7.4,37.3
						z M20.5,49.2L20.5,49.2z M20.5,56.5L20.5,56.5z M20.5,24.8L20.5,24.8z M20.5,63.8L20.5,63.8z M20.5,71.2L20.5,71.2z M20.5,78.5
						L20.5,78.5z M20.5,78.5L20.5,78.5z M20.5,85.4L20.5,85.4z"/>
					<polygon id="Path-2-3" class="st8" points="87.6,47.9 140.5,47.9 140.5,68.8 87.6,68.8 					"/>
					<path id="Stroke-5" class="st6" d="M69,121.3h18.6"/>
					<polygon id="Path-3" class="st6" points="49.5,11.2 107.3,11.2 107.3,25.4 49.5,25.4 					"/>
				</g>
			</g>
		</g>
	</g>
</g>
<line class="st6" x1="22.2" y1="49.7" x2="74.8" y2="49.7"/>
<line class="st6" x1="22.2" y1="57" x2="68.4" y2="57"/>
<line class="st6" x1="22.2" y1="64.3" x2="72.1" y2="64.3"/>
<line class="st6" x1="22.2" y1="71.6" x2="72.1" y2="71.6"/>
<line class="st6" x1="22.2" y1="79" x2="66.6" y2="79"/>
<line class="st6" x1="22.2" y1="85.9" x2="66.6" y2="85.9"/>
<line class="st6" x1="21.9" y1="25.1" x2="37.6" y2="25.1"/>
</svg>
