<?xml version="1.0" encoding="utf-8"?>
<!-- Generator: Adobe Illustrator 21.0.0, SVG Export Plug-In . SVG Version: 6.00 Build 0)  -->
<svg version="1.1" id="Слой_1" xmlns="http://www.w3.org/2000/svg" xmlns:xlink="http://www.w3.org/1999/xlink" x="0px" y="0px"
	 viewBox="0 0 174.4 183.4" style="enable-background:new 0 0 174.4 183.4;" xml:space="preserve">
<style type="text/css">
	.st0{fill:none;stroke:#132448;stroke-width:4;stroke-linecap:round;stroke-linejoin:round;}
	.st1{fill:none;stroke:#132448;stroke-width:4;stroke-linejoin:round;}
	.st2{fill:#132448;}
	.st3{fill:none;stroke:#D0011B;stroke-width:4;stroke-linecap:round;stroke-linejoin:round;}
	.st4{fill:none;stroke:#FDBB16;stroke-width:4;stroke-linecap:round;stroke-linejoin:round;}
	.st5{fill:none;stroke:#25B2A7;stroke-width:4;stroke-linecap:round;stroke-linejoin:round;}
</style>
<title>partner-loyal</title>
<g id="Слой_2">
	<g id="Слой_1-2">
		<g id="Desktop">
			<g id="Group">
				<path id="Stroke-1" class="st0" d="M169.5,23.4h-43.4l4.1-1.8c5.2-2.2,7.7-8.2,5.5-13.4c-2.2-5.2-8.2-7.7-13.4-5.5
					c-2.5,1-4.4,3-5.5,5.5L112.3,19l-4.6-10.8c-2.2-5.2-8.2-7.5-13.4-5.3s-7.5,8.2-5.3,13.4c1,2.4,2.9,4.3,5.3,5.3l4.1,1.8H70.6
					c-4.3-3.6-10.7-3.1-14.3,1.2c-0.7,0.8-1.2,1.7-1.6,2.6L50.1,38l-4.6-10.8c-2.2-5.2-8.2-7.5-13.4-5.3s-7.5,8.2-5.3,13.4
					c1,2.4,2.9,4.3,5.3,5.3l4.1,1.8H4.8c-1.6,0-2.8,1.3-2.8,2.8v14.1c0,1.6,1.3,2.8,2.8,2.8h0.6v96.1c0,1.6,1.3,2.8,2.8,2.8h18.5
					v17.6c0,1.6,1.3,2.8,2.8,2.8h118.9c1.6,0,2.8-1.3,2.8-2.8V145h14.2c1.6,0,2.8-1.3,2.8-2.8V54.9h1.3c1.6,0,2.8-1.3,2.8-2.8V26.2
					C172.3,24.7,171,23.4,169.5,23.4L169.5,23.4z"/>
				<path id="Stroke-2" class="st1" d="M98.3,49.3v-4.1c0-1.6-1.3-2.8-2.8-2.8H63.9l4.1-1.8c4.5-1.9,7.1-6.8,6-11.6"/>
				<path id="Stroke-3" class="st0" d="M151.2,155.4v-19.2h0.7c1.6,0,2.8-1.3,2.8-2.8v-10.8c0-1.6-1.3-2.8-2.8-2.8h-49.2l4.1-1.8
					c5.2-2.1,7.7-8.1,5.6-13.3c-2.1-5.2-8.1-7.7-13.3-5.6c-1.7,0.7-3.1,1.8-4.2,3.3l-5.7,12.4l-0.3,0.6l-4.6-10.8
					c-2.2-5.2-8.2-7.5-13.4-5.3s-7.5,8.2-5.3,13.4c1,2.4,2.9,4.3,5.3,5.3l4.1,1.8H26c-1.6,0-2.8,1.3-2.8,2.8v10.8
					c0,1.6,1.3,2.8,2.8,2.8c0,0,0,0,0,0h0.7v28.7"/>
				<path id="Fill-5" class="st2" d="M129.8,12c0,1.9-1.5,3.4-3.4,3.3c-1.9,0-3.4-1.5-3.3-3.4c0-1.9,1.5-3.3,3.4-3.3
					C128.3,8.6,129.8,10.1,129.8,12C129.8,12,129.8,12,129.8,12z"/>
				<path id="Fill-6" class="st2" d="M101.9,12c0,1.9-1.5,3.4-3.3,3.4c-1.9,0-3.4-1.5-3.4-3.3c0-1.9,1.5-3.4,3.3-3.4c0,0,0,0,0,0
					C100.4,8.7,101.9,10.1,101.9,12z"/>
				<path id="Fill-7" class="st2" d="M67.1,31.7c0,1.9-1.5,3.4-3.4,3.3c-1.9,0-3.4-1.5-3.3-3.4c0-1.9,1.5-3.3,3.4-3.4
					C65.5,28.3,67.1,29.8,67.1,31.7C67.1,31.7,67.1,31.7,67.1,31.7z"/>
				<path id="Fill-8" class="st2" d="M40.3,31.7c0,1.9-1.5,3.4-3.4,3.3c-1.9,0-3.4-1.5-3.3-3.4c0-1.9,1.5-3.4,3.4-3.3c0,0,0,0,0,0
					C38.9,28.3,40.4,29.8,40.3,31.7C40.4,31.7,40.4,31.7,40.3,31.7L40.3,31.7z"/>
				<path id="Fill-9" class="st2" d="M106.1,109c0,1.9-1.5,3.4-3.4,3.3c-1.9,0-3.4-1.5-3.3-3.4c0-1.9,1.5-3.3,3.4-3.3
					C104.6,105.6,106.1,107.1,106.1,109C106.1,109,106.1,109,106.1,109z"/>
				<path id="Fill-10" class="st2" d="M79,109c0,1.9-1.5,3.4-3.4,3.3c-1.9,0-3.4-1.5-3.3-3.4c0-1.9,1.5-3.3,3.4-3.3
					C77.5,105.6,79,107.1,79,109C79,109,79,109,79,109z"/>
				<path id="Stroke-11" class="st0" d="M94.8,102.1v-40 M95.4,62.1c1.6,0,2.8-1.3,2.8-2.8V45.2 M5.4,62.1h89.4 M98.5,54.9h71
					 M26.7,136.2h124.5 M74.1,33.2c0.6-3.3-0.4-6.8-2.8-9.2 M71.2,24c-2.4-2.4-5.8-3.5-9.2-2.8 M68.2,119.8h49 M29.6,42.4h43.2
					 M91.1,23.4L91.1,23.4z M172.4,35.1L172.4,35.1z"/>
				<path id="Path" class="st3" d="M41.1,171.1h45.1 M88.9,159.4h45.1 M55.5,146.4h45.1"/>
				<path id="Path-2" class="st4" d="M116.3,64.9L116.3,64.9z M136.6,79.7L136.6,79.7z M156.2,64.5L156.2,64.5z"/>
				<path id="Path-3" class="st5" d="M47.6,109.1l33.3-33.4 M18.7,109.1L52,75.7 M15.2,85.5l13.9-14"/>
			</g>
		</g>
	</g>
</g>
<line class="st4" x1="156.2" y1="66.9" x2="156.2" y2="97.8"/>
<line class="st4" x1="116.3" y1="67.6" x2="116.3" y2="98.6"/>
<line class="st4" x1="137.3" y1="79.9" x2="137.3" y2="110.9"/>
<line class="st0" x1="171.4" y1="35" x2="118.1" y2="35"/>
</svg>
