<?xml version="1.0" encoding="utf-8"?>
<!-- Generator: Adobe Illustrator 21.0.0, SVG Export Plug-In . SVG Version: 6.00 Build 0)  -->
<svg version="1.1" id="Слой_1" xmlns="http://www.w3.org/2000/svg" xmlns:xlink="http://www.w3.org/1999/xlink" x="0px" y="0px"
	 viewBox="0 0 155.9 145.4" style="enable-background:new 0 0 155.9 145.4;" xml:space="preserve">
<style type="text/css">
	.st0{fill:none;stroke:#132448;stroke-width:4;stroke-linecap:round;stroke-linejoin:round;}
	.st1{fill:none;stroke:#FDBB16;stroke-width:4;stroke-linecap:round;stroke-linejoin:round;}
	.st2{fill:none;stroke:#D0011B;stroke-width:4;stroke-linecap:round;stroke-linejoin:round;}
	.st3{fill:#25B2A7;}
</style>
<title>partner-content</title>
<g id="Слой_2">
	<g id="Слой_1-2">
		<g id="Page-1">
			<g id="Desktop">
				<g id="Group">
					<path id="Path" class="st0" d="M49.9,26l15.5-15.4L49.9,26z M93.7,26l15.5-15.4L93.7,26z"/>
					<path id="Path-2" class="st1" d="M134.4,62.2L88.1,76L134.4,62.2z"/>
					<path id="Path-3" class="st1" d="M153.8,100.8l-46.3,13.8L153.8,100.8z"/>
					<polygon id="ф" class="st2" points="21.7,36.5 21.7,61.5 26.3,57.6 31,63.4 31,38.4 					"/>
					<path id="Fill-1" class="st3" d="M99.5,2.7c4.2,0,8.4,0.3,12.5,0.8c0.7,0.1,1.4,0.4,1.8,1l0.8,1h4c0.8,0,1.4,0.6,1.4,1.4
						s-0.6,1.4-1.4,1.4l0,0h-4.4l-0.4,3.1c-0.4,3.1-0.8,6.3-1.2,9.9c-0.2,2.1-2,3.8-4.2,3.8h-18c-2.2,0-4-1.7-4.2-3.8
						c-0.4-3.7-0.8-7-1.2-9.9l-0.2-1.5V9.5l-0.1-0.3c-0.1-0.5-0.3-1-0.6-1.4l0.3-2c0.2-1.2,1.2-2.2,2.4-2.3
						C91.1,3,95.3,2.7,99.5,2.7 M56.5,2.7c4.2,0,8.4,0.3,12.5,0.8c1.2,0.2,2.2,1.1,2.4,2.3l0.3,2c-0.2,0.4-0.4,0.9-0.6,1.4l-0.1,0.3
						v0.4l-0.2,1.5c-0.4,3.1-0.8,6.3-1.2,9.9c-0.2,2.1-2,3.8-4.2,3.8h-18c-2.2,0-4-1.7-4.2-3.8c-0.4-3.5-0.8-6.7-1.2-9.8v-0.1
						L42,10.7l-0.3-2.4h-4.5c-0.8,0-1.4-0.6-1.4-1.4s0.6-1.4,1.4-1.4h4l0.8-1c0.5-0.6,1.1-0.9,1.8-1C48,3,52.2,2.8,56.5,2.7 M99.5,0
						c-4.3,0-8.6,0.3-12.9,0.8c-2.4,0.3-4.3,2.2-4.7,4.6c-2.3-1.5-5.4-1.5-7.7,0c-0.4-2.4-2.3-4.3-4.7-4.6c-8.6-1.1-17.3-1.1-25.8,0
						c-1.4,0.2-2.7,0.9-3.6,2h-2.7c-2.3,0-4.1,1.8-4.1,4.1s1.8,4.1,4.1,4.1h2l0.1,0.7c0.4,3.1,0.8,6.3,1.2,9.9
						c0.4,3.5,3.4,6.2,6.9,6.2h18.1c3.5,0,6.5-2.7,6.9-6.2c0.4-3.6,0.8-6.8,1.2-9.9l0.2-1.5c0-0.1,0-0.1,0.1-0.2
						c0.6-2.3,3-3.7,5.3-3.1c1.5,0.4,2.7,1.6,3.1,3.1c0,0.1,0,0.1,0.1,0.2l0.2,1.5c0.4,3.1,0.8,6.3,1.2,9.9c0.4,3.5,3.4,6.2,6.9,6.2
						h18c3.5,0,6.5-2.7,6.9-6.2c0.4-3.6,0.8-6.8,1.2-9.9l0.1-0.7h2c2.3,0,4.1-1.8,4.1-4.1c0-2.3-1.8-4.1-4.1-4.1c0,0,0,0,0,0H116
						c-0.9-1.1-2.2-1.8-3.6-2C108.1,0.3,103.8,0,99.5,0"/>
					<path id="Stroke-2" class="st0" d="M2,123.7l65.8,19.7V49.5L2,29.8V123.7L2,123.7z M153.9,123.7l-65.8,19.7V49.5l65.8-19.7
						V123.7L153.9,123.7z M67.8,49.5L67.8,49.5z M67.8,143.4L67.8,143.4z M49.4,100.1L49.4,100.1z M15.4,127.7L15.4,127.7z"/>
				</g>
			</g>
		</g>
	</g>
</g>
<line class="st0" x1="49.9" y1="100.3" x2="49.9" y2="45.1"/>
<line class="st0" x1="16" y1="127.9" x2="16" y2="72.7"/>
</svg>
