<svg xmlns="http://www.w3.org/2000/svg" viewBox="0 0 179.74 105.78"><defs><style>.cls-1{fill:#01b9b4;}</style></defs><title>rest-base</title><g id="Слой_2" data-name="Слой 2"><g id="Слой_1-2" data-name="Слой 1"><g id="Desktop"><g id="Imported-Layers-Copy"><path id="Fill-1" d="M39.71,43.13a1.93,1.93,0,0,1-1.79-1.28A2.09,2.09,0,0,1,39,39.19l3.25-1.4a1.89,1.89,0,0,1,2.51,1.13,2.09,2.09,0,0,1-1.06,2.66L40.43,43a1.82,1.82,0,0,1-.72.15"/><path id="Fill-2" d="M48.34,53.16a1.93,1.93,0,0,1-1.79-1.3,2.09,2.09,0,0,1,1.09-2.65l3.27-1.36A1.89,1.89,0,0,1,53.4,49a2.09,2.09,0,0,1-1.09,2.65L49,53a1.83,1.83,0,0,1-.71.14"/><path id="Fill-3" d="M63.82,42.92a1.82,1.82,0,0,1-.62-.11l-3.32-1.19A2.08,2.08,0,0,1,58.67,39a1.9,1.9,0,0,1,2.44-1.28l3.32,1.19a2.08,2.08,0,0,1,1.21,2.59,1.94,1.94,0,0,1-1.82,1.39"/><path id="Fill-4" d="M64.89,50.83A2,2,0,0,1,63,49a2,2,0,0,1,1.73-2.24l3.49-.37a2,2,0,0,1,2.11,1.83,2,2,0,0,1-1.73,2.24l-3.49.37h-.19"/><path id="Fill-5" class="cls-1" d="M101.13,4.09h47.14l3,12.94h6v7.7h.15a2,2,0,0,1,0,4.09H154l-5.78,72.55H105.34l-.36.33h47.08l5.8-72.81a3.57,3.57,0,0,0,3.33-3.66V16.6a3.57,3.57,0,0,0-3.45-3.66h-3.4l-2.4-10.17A3.49,3.49,0,0,0,148.59,0H100.82a3.49,3.49,0,0,0-3.35,2.77l-2.4,10.17h4l2.09-8.85"/><path id="Fill-6" d="M25.08,55.74V54c0-10.79,8.27-19.56,18.44-19.56H86.46a17.41,17.41,0,0,1,5.71,1l-.35-4.36a21,21,0,0,0-5.36-.7H43.52C31.23,30.37,21.23,41,21.23,54v5.81H94.11l-.33-4.09H25.08"/><path id="Fill-7" d="M97.28,100.8a64.68,64.68,0,0,1-10.82.58H43.52c-12.12,0-18.44-.44-18.44-9.93V89.73H96.39l-.33-4.09H21.23v5.81c0,4.59,1.24,8,3.77,10.24H97.35l-.07-.89"/><path id="Fill-8" class="cls-1" d="M105.34,101.36h-4.15L101,99.57a12.63,12.63,0,0,1-3.77,1.23l.07.89H105l.36-.33"/><path id="Fill-9" d="M87.44,39.12l-3.49-.37a2,2,0,0,0-2.11,1.83,2,2,0,0,0,1.73,2.24l3.49.37h.19a2,2,0,0,0,1.91-1.84,2,2,0,0,0-1.73-2.24"/><path id="Fill-10" d="M82.55,49l-3.41.87a2.05,2.05,0,0,0-1.42,2.47,2,2,0,0,0,1.87,1.56,1.82,1.82,0,0,0,.45-.06L83.46,53a2.05,2.05,0,0,0,1.42-2.47A1.92,1.92,0,0,0,82.55,49"/><path id="Fill-11" d="M23.18,79.42a3.65,3.65,0,0,1,0-7.3H95L94.69,68H23.18a7.75,7.75,0,0,0,0,15.47H95.92l-.33-4.09H23.18"/><path id="Fill-12" class="cls-1" d="M142.6,15a2,2,0,0,0-1.93-2H99l-1,4.09h42.59a2,2,0,0,0,1.93-2"/><path id="Fill-13" class="cls-1" d="M92.51,15a2,2,0,0,0,1.93,2h3.65l1-4.09H94.43a2,2,0,0,0-1.93,2"/><path id="Fill-14" class="cls-1" d="M109.31,26.77a2,2,0,0,0,1.93,2H154l.32-4h3v-.07h-46.1a2,2,0,0,0-1.93,2"/><path id="Fill-15" class="cls-1" d="M154.32,24.8l-.32,4h3.48a2,2,0,0,0,0-4.09h-.15v.07h-3"/><path id="Fill-16" d="M124.69,68.28c6.86,0,12.44-5.92,12.44-13.2s-5.58-13.2-12.44-13.2-12.44,5.92-12.44,13.2,5.58,13.2,12.44,13.2Zm0-22.31a9.13,9.13,0,1,1-8.59,9.11A8.87,8.87,0,0,1,124.69,46Z"/><path id="Fill-17" d="M23.15,62a2,2,0,0,0,0,4.09h71.4L94.23,62H23.15"/><path id="Fill-18" class="cls-1" d="M100.26,89.73,95.09,24.8h-3V17h2.36a2,2,0,0,1,0-4.09H91.67a3.57,3.57,0,0,0-3.45,3.66v8.63a3.57,3.57,0,0,0,3.33,3.66l5.73,71.91A12.63,12.63,0,0,0,101,99.57l-.78-9.84"/><path id="Fill-19" d="M177.82,101.69H152.06l0,.4a3.56,3.56,0,0,1-3.44,3.35H100.82a3.31,3.31,0,0,1-2.12-.78c-3.58.79-7.82.79-12.25.79H43.52c-5.67,0-11,0-15.09-1.65A11.67,11.67,0,0,1,25,101.69H1.93a2,2,0,0,0,0,4.09H177.82a2,2,0,0,0,0-4.09"/><path id="Fill-20" d="M101.54,103.81a17.53,17.53,0,0,1-2.84.86,3.31,3.31,0,0,0,2.12.78h47.77A3.56,3.56,0,0,0,152,102.1l0-.4H105a11.68,11.68,0,0,1-3.44,2.12"/><path id="Fill-21" d="M43.52,105.47H86.46c4.43,0,8.67,0,12.25-.79a3.72,3.72,0,0,1-1.32-2.57l0-.4H25a11.67,11.67,0,0,0,3.44,2.12c4.06,1.65,9.41,1.65,15.09,1.65"/><path id="Fill-22" d="M105,101.69H97.35l0,.4a3.72,3.72,0,0,0,1.32,2.57,17.53,17.53,0,0,0,2.84-.86,11.68,11.68,0,0,0,3.44-2.12"/><path id="Fill-23" class="cls-1" d="M140.89,89.74H109.31a2,2,0,0,1,0-4.09h31.58a2,2,0,0,1,0,4.09"/></g></g></g></g></svg>