<svg xmlns="http://www.w3.org/2000/svg" viewBox="0 0 179.75 131.41"><defs><style>.cls-1{fill:#fbb42c;}</style></defs><title>rest-premium</title><g id="Слой_2" data-name="Слой 2"><g id="Слой_1-2" data-name="Слой 1"><g id="Desktop"><g id="Imported-Layers"><path id="Fill-1" d="M63.06,64.11a1.93,1.93,0,0,1-1.3-3.35c10.91-10,25-13.67,41.84-11L120.38,52a1.93,1.93,0,1,1-.52,3.82l-16.8-2.27h0c-15.65-2.44-28.66.95-38.67,10.08a1.92,1.92,0,0,1-1.3.5"/><path id="Fill-2" d="M172.81,131.39H28.87a1.93,1.93,0,1,1,0-3.85H172.81a1.93,1.93,0,1,1,0,3.85"/><path id="Fill-4" d="M163.78,131.41a1.93,1.93,0,0,1-1.84-2.49,21.12,21.12,0,0,0-20.21-27.33h-.2a1.93,1.93,0,0,1-1.9-1.59,21.11,21.11,0,0,0-20.82-17.43,15.11,15.11,0,0,0-6.25,1.2A1.93,1.93,0,0,1,111,80.25a18.87,18.87,0,0,1,7.81-1.54A25,25,0,0,1,143.1,97.77a25,25,0,0,1,22.52,32.28,1.93,1.93,0,0,1-1.84,1.36"/><path id="Fill-5" d="M86.67,131.41a1.93,1.93,0,0,1-1.91-1.72,25,25,0,0,1,9.35-22.25,25.26,25.26,0,0,1-.28-3.72A23.87,23.87,0,0,1,100.48,87a1.93,1.93,0,1,1,2.74,2.7,20,20,0,0,0-5.54,14,21.25,21.25,0,0,0,.41,4.18,1.93,1.93,0,0,1-.77,1.95,21.13,21.13,0,0,0-8.85,17.21,21.35,21.35,0,0,0,.12,2.23,1.93,1.93,0,0,1-1.71,2.12h-.2"/><path id="Fill-6" class="cls-1" d="M53.56,131.39H17.35a4.81,4.81,0,0,1-4.49-6.53,24.21,24.21,0,0,1,17.79-15V97.62a10.79,10.79,0,0,1,0-19.33A35.51,35.51,0,0,1,0,43.17V32.11A4.81,4.81,0,0,1,4.81,27.3H66.1a4.81,4.81,0,0,1,4.81,4.81V43.17A35.51,35.51,0,0,1,40.27,78.29a10.79,10.79,0,0,1,0,19.33v12.19a24.21,24.21,0,0,1,17.79,15,4.81,4.81,0,0,1-4.49,6.53ZM4.81,31.15a1,1,0,0,0-1,1V43.17A31.65,31.65,0,0,0,32.74,74.65a1.93,1.93,0,0,1,1.76,1.92v3a1.93,1.93,0,0,1-1.3,1.82,6.94,6.94,0,0,0,0,13.14,1.93,1.93,0,0,1,1.3,1.82v15.1a1.93,1.93,0,0,1-1.68,1.91,20,20,0,0,0-9,3.49,20.33,20.33,0,0,0-7.35,9.39,1,1,0,0,0,.89,1.3H53.56a1,1,0,0,0,.89-1.3,20.34,20.34,0,0,0-7.35-9.39,20,20,0,0,0-9-3.49,1.93,1.93,0,0,1-1.68-1.91V96.35a1.93,1.93,0,0,1,1.3-1.82,6.94,6.94,0,0,0,0-13.14,1.93,1.93,0,0,1-1.3-1.82v-3a1.93,1.93,0,0,1,1.76-1.92A31.65,31.65,0,0,0,67.06,43.17V32.11a1,1,0,0,0-1-1Z"/><path id="Fill-7" class="cls-1" d="M54.75,40.12H1.93a1.93,1.93,0,1,1,0-3.85H54.75a1.93,1.93,0,1,1,0,3.85"/><path id="Fill-8" d="M36.65,62.75H34.84a4.94,4.94,0,0,1-4.94-4.94V49.4a4.94,4.94,0,0,1,4.94-4.94h1.81a4.94,4.94,0,0,1,4.94,4.94v8.41a4.94,4.94,0,0,1-4.94,4.94ZM34.84,48.32a1.1,1.1,0,0,0-1.08,1.08v8.41a1.1,1.1,0,0,0,1.08,1.08h1.81a1.1,1.1,0,0,0,1.08-1.08V49.4a1.1,1.1,0,0,0-1.08-1.08Z"/><path id="Fill-9" class="cls-1" d="M49.56,55.82a1.92,1.92,0,0,1-.37,0,1.82,1.82,0,0,1-.36-.11,1.93,1.93,0,0,1-.33-.18,2,2,0,0,1-.29-.24A1.89,1.89,0,0,1,48,55a2.14,2.14,0,0,1-.18-.33,2.17,2.17,0,0,1-.11-.36,1.86,1.86,0,0,1,0-.75,2.09,2.09,0,0,1,.11-.36,2.14,2.14,0,0,1,.18-.33,2,2,0,0,1,.53-.53,1.93,1.93,0,0,1,.33-.18,1.82,1.82,0,0,1,.36-.11,1.93,1.93,0,1,1,.37,3.81"/><path id="Fill-10" class="cls-1" d="M35.74,89.88a1.93,1.93,0,1,1,1.36-.56,1.93,1.93,0,0,1-1.36.56"/><path id="Fill-11" class="cls-1" d="M58.21,55.82a1.95,1.95,0,0,1-.74-.15,1.81,1.81,0,0,1-.33-.18,1.93,1.93,0,0,1-.29-.24A2,2,0,0,1,56.6,55a1.91,1.91,0,0,1-.29-1.45,1.88,1.88,0,0,1,.11-.36,1.93,1.93,0,0,1,.18-.33,2,2,0,0,1,.24-.29,1.78,1.78,0,0,1,.29-.24,1.81,1.81,0,0,1,.33-.18,1.93,1.93,0,1,1,.74,3.7"/><path id="Fill-12" class="cls-1" d="M14.14,55.82a1.95,1.95,0,0,1-.74-.15,1.9,1.9,0,0,1-.33-.18,1.93,1.93,0,0,1-.29-.24,2,2,0,0,1-.24-.29,1.91,1.91,0,0,1-.29-1.45,1.88,1.88,0,0,1,.11-.36,1.93,1.93,0,0,1,.18-.33,2,2,0,0,1,.24-.29,1.78,1.78,0,0,1,.29-.24,1.9,1.9,0,0,1,.33-.18,1.93,1.93,0,1,1,.74,3.7"/><path id="Fill-13" class="cls-1" d="M22.78,55.82a1.93,1.93,0,0,1-.38,0,1.82,1.82,0,0,1-.36-.11,1.93,1.93,0,0,1-.33-.18,2,2,0,0,1-.29-.24,1.88,1.88,0,0,1-.24-.29,1.94,1.94,0,0,1-.18-.33,2.17,2.17,0,0,1-.11-.36,2,2,0,0,1,0-.75,2.09,2.09,0,0,1,.11-.36,1.94,1.94,0,0,1,.18-.33,1.93,1.93,0,0,1,.53-.53,1.93,1.93,0,0,1,.33-.18A1.82,1.82,0,0,1,22.4,52a1.92,1.92,0,0,1,.75,0,2,2,0,0,1,.69.29,1.9,1.9,0,0,1,.29.24,1.93,1.93,0,0,1,0,2.72,2.07,2.07,0,0,1-.29.24,2,2,0,0,1-.69.29,1.92,1.92,0,0,1-.37,0"/><path id="Fill-14" class="cls-1" d="M43.8,124H26.23a1.93,1.93,0,0,1,0-3.85H43.8a1.93,1.93,0,0,1,0,3.85"/><path id="Fill-16" d="M60,92a1.93,1.93,0,0,1-1.36-3.29L86.59,60.82a1.93,1.93,0,1,1,2.72,2.72L61.38,91.48A1.92,1.92,0,0,1,60,92"/><path id="Fill-17" d="M61.68,110.69a1.93,1.93,0,0,1-1.36-3.29L92.41,75.31A1.93,1.93,0,0,1,95.13,78L63,110.12a1.92,1.92,0,0,1-1.36.56"/><path id="Fill-18" d="M108.75,74.9a1.93,1.93,0,0,1-1.36-3.29l10.8-10.8a1.93,1.93,0,1,1,2.72,2.72l-10.8,10.8a1.92,1.92,0,0,1-1.36.56"/><path id="Fill-19" d="M136,115.35a1.93,1.93,0,0,1-1.89-1.59,21.11,21.11,0,0,0-20.82-17.43,1.93,1.93,0,0,1,0-3.85,25,25,0,0,1,24.61,20.61,1.93,1.93,0,0,1-1.56,2.23,2,2,0,0,1-.34,0"/><path id="Fill-20" d="M146.44,102.08a1.93,1.93,0,0,1-1.88-1.51l-5.29-24a1.93,1.93,0,0,1,3.76-.83l5.29,24a1.93,1.93,0,0,1-1.88,2.34"/><path id="Fill-21" d="M120.12,55.82a1.93,1.93,0,0,1-1.53-3.09l24.8-32.66-3-11.16a6.89,6.89,0,0,1,4.52-8.6c4.55-1.43,7.33,2.5,8.38,4l7,9.67a1.93,1.93,0,0,1-3.11,2.27l-7.06-9.69C148.12,3.64,147,3.69,146.08,4a3,3,0,0,0-2,3.81l0,.08L147.35,20a1.93,1.93,0,0,1-.33,1.66L121.66,55.06a1.92,1.92,0,0,1-1.54.76"/><path id="Fill-22" d="M141.16,78.07a1.93,1.93,0,0,1-1.75-2.72l21.07-46.46a1.93,1.93,0,0,1,1-1L173.62,23l.14-.05a3,3,0,0,0,2-3.81c-.15-.49-.62-2-4.35-1.9h-.08L158.76,17a1.93,1.93,0,0,1,.07-3.85l12.53.23c3-.05,6.84.7,8.07,4.6A6.89,6.89,0,0,1,175,26.61l-11.33,4.57L142.91,76.94a1.93,1.93,0,0,1-1.76,1.13"/><path id="Fill-23" d="M96.2,110.19a1.92,1.92,0,0,1-1.9-1.6A29.7,29.7,0,0,1,95,97.07c1.51-5.7,5.54-13.27,16.15-16.88a1.93,1.93,0,0,1,1.24,3.65c-7.18,2.45-11.76,7.19-13.63,14.09a26.24,26.24,0,0,0-.68,10,1.93,1.93,0,0,1-1.58,2.22l-.32,0"/><path id="Fill-25" d="M154.85,42.78a1.92,1.92,0,0,1-1.06-.32L137.24,31.57a1.93,1.93,0,0,1,2.12-3.22l16.56,10.89a1.93,1.93,0,0,1-1.06,3.54"/><path id="Fill-26" d="M177.82,131.41H1.93a1.93,1.93,0,1,1,0-3.85H177.82a1.93,1.93,0,1,1,0,3.85"/></g></g></g></g></svg>