<svg xmlns="http://www.w3.org/2000/svg" viewBox="0 0 179.74 108.17"><defs><style>.cls-1{fill:#94002d;}</style></defs><title>rest-optimum</title><g id="Слой_2" data-name="Слой 2"><g id="Слой_1-2" data-name="Слой 1"><g id="Desktop"><g id="Imported-Layers"><path id="Fill-1" d="M78.64,108C59.27,108,43.25,106,31,101.92c-9.78-3.23-17.18-7.74-22-13.39C1.74,80,2.93,71.93,3,71.59A1.93,1.93,0,0,1,4.89,70h147.5a1.93,1.93,0,0,1,1.9,1.62c.05.34,1.25,8.42-6,16.94-4.82,5.65-12.22,10.16-22,13.39C114,106,98,108,78.64,108ZM6.74,73.82c.09,2.42.9,7.22,5.31,12.33,12.86,14.89,43.31,18,66.59,18s53.73-3.13,66.59-18c4.41-5.11,5.22-9.91,5.31-12.33Z"/><path id="Fill-2" class="cls-1" d="M146,59.51a25.18,25.18,0,0,1-25.15-25.15V1.93A1.93,1.93,0,0,1,122.8,0h46.45a1.93,1.93,0,0,1,1.93,1.93V34.36A25.18,25.18,0,0,1,146,59.51ZM124.73,3.85V34.36a21.3,21.3,0,0,0,42.6,0V3.85Z"/><path id="Fill-3" class="cls-1" d="M169.25,32.79H123.4a1.93,1.93,0,0,1,0-3.85h45.85a1.93,1.93,0,0,1,0,3.85"/><path id="Fill-4" class="cls-1" d="M146,102.31a1.93,1.93,0,0,1-1.93-1.93V57.59a1.93,1.93,0,0,1,3.85,0v42.8a1.93,1.93,0,0,1-1.93,1.93"/><path id="Fill-5" class="cls-1" d="M168.86,40.58h-29a1.93,1.93,0,0,1,0-3.85h29a1.93,1.93,0,0,1,0,3.85"/><path id="Fill-6" class="cls-1" d="M129.25,108.14a1.93,1.93,0,0,1-1.25-3.4,29.93,29.93,0,0,1,18-6.29,1.93,1.93,0,0,1,0,3.85,26.24,26.24,0,0,0-15.53,5.37,1.92,1.92,0,0,1-1.24.46"/><path id="Fill-7" class="cls-1" d="M162.82,108.14a1.92,1.92,0,0,1-1.24-.45A26.47,26.47,0,0,0,146,102.31a1.93,1.93,0,0,1,0-3.85,29.93,29.93,0,0,1,18,6.29,1.93,1.93,0,0,1-1.25,3.4"/><path id="Fill-9" d="M135.57,73.7a1.92,1.92,0,0,1-1.6-.85,39.59,39.59,0,0,0-33.33-17.57,41,41,0,0,0-6.87.59,1.93,1.93,0,1,1-.65-3.8,44.89,44.89,0,0,1,7.51-.64A43.39,43.39,0,0,1,137.17,70.7a1.93,1.93,0,0,1-1.59,3"/><path id="Fill-11" d="M16.08,72.24a1.93,1.93,0,0,1-1.84-2.5,47.63,47.63,0,0,1,16.85-23.8A47.22,47.22,0,0,1,94.9,52.71a1.93,1.93,0,0,1-1.13,3.17,40.32,40.32,0,0,0-10.35,3.24,1.93,1.93,0,0,1-1.64-3.49,44.09,44.09,0,0,1,7.9-2.82A43.38,43.38,0,0,0,17.92,70.89a1.93,1.93,0,0,1-1.84,1.35"/><path id="Fill-13" d="M74.13,64.57a1.93,1.93,0,0,1-1.2-3.43,44.51,44.51,0,0,1,8.86-5.51,1.93,1.93,0,1,1,1.64,3.49,40.65,40.65,0,0,0-8.09,5,1.92,1.92,0,0,1-1.2.42"/><path id="Fill-14" d="M36.37,74a1.93,1.93,0,0,1-1.71-2.81,27.73,27.73,0,0,1,40.59-10.1,1.93,1.93,0,0,1,.1,3.08A40.84,40.84,0,0,0,67.12,73a1.93,1.93,0,0,1-3.18-2.18,44.68,44.68,0,0,1,6.93-7.92,23.88,23.88,0,0,0-32.8,10,1.93,1.93,0,0,1-1.72,1"/><path id="Fill-15" d="M72.62,88H9.89a1.93,1.93,0,1,1,0-3.85H72.62a1.93,1.93,0,1,1,0,3.85"/><path id="Fill-16" d="M132,98.84H93.45a1.93,1.93,0,0,1,0-3.85H132a1.93,1.93,0,0,1,0,3.85"/><path id="Fill-17" d="M120.05,72.38a1.92,1.92,0,0,1-1.36-.57c-4.5-4.51-9.29-7.52-18-7.52-9,0-13.59,2.85-18,7.46a1.93,1.93,0,1,1-2.79-2.66c5-5.19,10.39-8.65,20.77-8.65,10.67,0,16.29,4.16,20.78,8.65a1.93,1.93,0,0,1-1.36,3.29"/><path id="Fill-18" d="M26.32,73.29a1.93,1.93,0,0,1-1.85-2.48C28.75,56.47,42.93,46.44,59,46.44a37.11,37.11,0,0,1,24.63,9.14A1.93,1.93,0,0,1,81,58.47,33.26,33.26,0,0,0,59,50.3c-14.34,0-27,8.89-30.79,21.62a1.93,1.93,0,0,1-1.85,1.38"/><path id="Fill-19" d="M107.95,55.65a1.94,1.94,0,0,1-.49-.06,14.3,14.3,0,0,1-5.93-3.67c-4.61-4.63-5.44-11.06-5.33-15.65a1.93,1.93,0,0,1,3.85.1c-.33,12.94,8,15.4,8.38,15.5a1.93,1.93,0,0,1-.5,3.79"/><path id="Fill-20" d="M139.87,11.82H122.8a1.93,1.93,0,0,1,0-3.85h17.07a1.93,1.93,0,1,1,0,3.85"/><path id="Fill-21" d="M177.82,108.17H1.93a1.93,1.93,0,1,1,0-3.85H177.82a1.93,1.93,0,0,1,0,3.85"/></g></g></g></g></svg>